<?xml version="1.0" encoding="UTF-8" standalone="no"?><svg xmlns="http://www.w3.org/2000/svg" xmlns:xlink="http://www.w3.org/1999/xlink" style="isolation:isolate" viewBox="0 0 1024 224" width="1024pt" height="224pt"><defs><clipPath id="_clipPath_ohUvnRwMQgcoziu7nJHtIXGsNFcxz2Bs"><rect width="1024" height="224"/></clipPath></defs><g clip-path="url(#_clipPath_ohUvnRwMQgcoziu7nJHtIXGsNFcxz2Bs)"><path d="M 6.151 0 L 1017.849 0 C 1021.244 0 1024 2.756 1024 6.151 L 1024 217.849 C 1024 221.244 1021.244 224 1017.849 224 L 6.151 224 C 2.756 224 0 221.244 0 217.849 L 0 6.151 C 0 2.756 2.756 0 6.151 0 Z" style="stroke:none;fill:#FFFFFF;stroke-miterlimit:10;"/><clipPath id="_clipPath_BBvfytXn70fV5BWyZr0YqN7wyw10WE73"><path d="M 6.151 0 L 1017.849 0 C 1021.244 0 1024 2.756 1024 6.151 L 1024 217.849 C 1024 221.244 1021.244 224 1017.849 224 L 6.151 224 C 2.756 224 0 221.244 0 217.849 L 0 6.151 C 0 2.756 2.756 0 6.151 0 Z" style="stroke:none;fill:#FFFFFF;stroke-miterlimit:10;"/></clipPath><g clip-path="url(#_clipPath_BBvfytXn70fV5BWyZr0YqN7wyw10WE73)"><g><rect x="76.439" y="-273.442" width="384" height="384" transform="matrix(0.978,-0.208,0.208,0.978,22.799,54.032)" fill="rgb(248,49,160)"/><rect x="-346.15" y="-183.617" width="384" height="384" transform="matrix(0.978,-0.208,0.208,0.978,-5.111,-31.866)" fill="rgb(0,82,177)"/><rect x="498.999" y="-363.259" width="384" height="384" transform="matrix(0.978,-0.208,0.208,0.978,50.707,139.924)" fill="rgb(241,229,87)"/><rect x="41.054" y="175.731" width="384" height="384" transform="matrix(0.978,-0.208,0.208,0.978,-71.363,56.49)" fill="rgb(62,255,111)"/><rect x="463.614" y="85.913" width="384" height="384" transform="matrix(0.978,-0.208,0.208,0.978,-43.455,142.383)" fill="rgb(233,58,85)"/><rect x="886.144" y="-3.898" width="384" height="384" transform="matrix(0.978,-0.208,0.208,0.978,-15.548,228.269)" fill="rgb(123,234,252)"/></g></g><g><path d=" M 295.646 68.549 L 295.646 68.549 L 289.936 65.232 L 289.936 65.232 Q 293.547 59.563 293.673 53.516 L 293.673 53.516 L 293.673 46.419 L 303.331 46.419 L 303.331 52.928 L 303.331 52.928 Q 303.331 56.707 301.231 61.116 L 301.231 61.116 L 301.231 61.116 Q 299.132 65.526 295.646 68.549 Z " fill="rgb(86,26,255)"/><path d=" M 405.272 115.698 L 405.272 115.698 Q 416.624 115.698 424.106 121.546 L 424.106 121.546 L 424.106 121.546 Q 431.588 127.394 433.996 137.456 L 433.996 137.456 L 421.268 137.456 L 421.268 137.456 Q 419.29 132.554 415.119 129.716 L 415.119 129.716 L 415.119 129.716 Q 410.948 126.878 405.1 126.878 L 405.1 126.878 L 405.1 126.878 Q 400.284 126.878 396.414 129.286 L 396.414 129.286 L 396.414 129.286 Q 392.544 131.694 390.394 136.166 L 390.394 136.166 L 390.394 136.166 Q 388.244 140.638 388.244 146.658 L 388.244 146.658 L 388.244 146.658 Q 388.244 152.592 390.394 157.064 L 390.394 157.064 L 390.394 157.064 Q 392.544 161.536 396.414 163.944 L 396.414 163.944 L 396.414 163.944 Q 400.284 166.352 405.1 166.352 L 405.1 166.352 L 405.1 166.352 Q 410.948 166.352 415.119 163.514 L 415.119 163.514 L 415.119 163.514 Q 419.29 160.676 421.268 155.774 L 421.268 155.774 L 433.996 155.774 L 433.996 155.774 Q 431.588 165.836 424.106 171.684 L 424.106 171.684 L 424.106 171.684 Q 416.624 177.532 405.272 177.532 L 405.272 177.532 L 405.272 177.532 Q 396.586 177.532 389.921 173.619 L 389.921 173.619 L 389.921 173.619 Q 383.256 169.706 379.601 162.654 L 379.601 162.654 L 379.601 162.654 Q 375.946 155.602 375.946 146.658 L 375.946 146.658 L 375.946 146.658 Q 375.946 137.628 379.601 130.576 L 379.601 130.576 L 379.601 130.576 Q 383.256 123.524 389.878 119.611 L 389.878 119.611 L 389.878 119.611 Q 396.5 115.698 405.272 115.698 L 405.272 115.698 Z  M 469.578 115.44 L 469.578 115.44 Q 478.092 115.44 485.015 119.396 L 485.015 119.396 L 485.015 119.396 Q 491.938 123.352 495.937 130.447 L 495.937 130.447 L 495.937 130.447 Q 499.936 137.542 499.936 146.486 L 499.936 146.486 L 499.936 146.486 Q 499.936 155.43 495.937 162.568 L 495.937 162.568 L 495.937 162.568 Q 491.938 169.706 485.015 173.662 L 485.015 173.662 L 485.015 173.662 Q 478.092 177.618 469.578 177.618 L 469.578 177.618 L 469.578 177.618 Q 461.064 177.618 454.141 173.662 L 454.141 173.662 L 454.141 173.662 Q 447.218 169.706 443.219 162.568 L 443.219 162.568 L 443.219 162.568 Q 439.22 155.43 439.22 146.486 L 439.22 146.486 L 439.22 146.486 Q 439.22 137.542 443.219 130.447 L 443.219 130.447 L 443.219 130.447 Q 447.218 123.352 454.141 119.396 L 454.141 119.396 L 454.141 119.396 Q 461.064 115.44 469.578 115.44 L 469.578 115.44 Z  M 469.578 126.62 L 469.578 126.62 Q 464.246 126.62 460.204 129.028 L 460.204 129.028 L 460.204 129.028 Q 456.162 131.436 453.883 135.951 L 453.883 135.951 L 453.883 135.951 Q 451.604 140.466 451.604 146.486 L 451.604 146.486 L 451.604 146.486 Q 451.604 152.506 453.883 157.021 L 453.883 157.021 L 453.883 157.021 Q 456.162 161.536 460.204 163.944 L 460.204 163.944 L 460.204 163.944 Q 464.246 166.352 469.578 166.352 L 469.578 166.352 L 469.578 166.352 Q 474.91 166.352 478.952 163.944 L 478.952 163.944 L 478.952 163.944 Q 482.994 161.536 485.273 157.021 L 485.273 157.021 L 485.273 157.021 Q 487.552 152.506 487.552 146.486 L 487.552 146.486 L 487.552 146.486 Q 487.552 140.466 485.273 135.951 L 485.273 135.951 L 485.273 135.951 Q 482.994 131.436 478.952 129.028 L 478.952 129.028 L 478.952 129.028 Q 474.91 126.62 469.578 126.62 L 469.578 126.62 Z  M 557.878 116.988 L 572.498 116.988 L 572.498 177.016 L 560.458 177.016 L 560.458 135.134 L 545.064 177.016 L 534.572 177.016 L 519.178 135.306 L 519.178 177.016 L 507.052 177.016 L 507.052 116.988 L 521.758 116.988 L 539.99 162.138 L 557.878 116.988 Z  M 632.332 116.988 L 646.952 116.988 L 646.952 177.016 L 634.912 177.016 L 634.912 135.134 L 619.518 177.016 L 609.026 177.016 L 593.632 135.306 L 593.632 177.016 L 581.506 177.016 L 581.506 116.988 L 596.212 116.988 L 614.444 162.138 L 632.332 116.988 Z  M 655.616 116.3 L 667.656 116.3 L 667.656 151.904 L 667.656 151.904 Q 667.656 159.042 670.795 162.611 L 670.795 162.611 L 670.795 162.611 Q 673.934 166.18 679.868 166.18 L 679.868 166.18 L 679.868 166.18 Q 685.716 166.18 688.855 162.611 L 688.855 162.611 L 688.855 162.611 Q 691.994 159.042 691.994 151.904 L 691.994 151.904 L 691.994 116.3 L 704.034 116.3 L 704.034 151.904 L 704.034 151.904 Q 704.034 160.332 700.895 166.137 L 700.895 166.137 L 700.895 166.137 Q 697.756 171.942 692.209 174.78 L 692.209 174.78 L 692.209 174.78 Q 686.662 177.618 679.61 177.618 L 679.61 177.618 L 679.61 177.618 Q 668.688 177.618 662.152 171.082 L 662.152 171.082 L 662.152 171.082 Q 655.616 164.546 655.616 151.904 L 655.616 151.904 L 655.616 116.3 Z  M 764.126 116.3 L 764.126 177.016 L 752 177.016 L 724.824 135.736 L 724.824 177.016 L 712.698 177.016 L 712.698 116.3 L 724.824 116.3 L 752 157.924 L 752 116.3 L 764.126 116.3 Z  M 293.71 125.932 L 269.63 125.932 L 269.63 141.67 L 291.13 141.67 L 291.13 150.958 L 269.63 150.958 L 269.63 167.298 L 293.71 167.298 L 293.71 177.016 L 257.504 177.016 L 257.504 116.3 L 293.71 116.3 L 293.71 125.932 Z  M 352.082 116.3 L 352.082 177.016 L 339.956 177.016 L 312.78 135.736 L 312.78 177.016 L 300.654 177.016 L 300.654 116.3 L 312.78 116.3 L 339.956 157.924 L 339.956 116.3 L 352.082 116.3 Z  M 358.056 46.468 L 371.042 46.468 L 387.296 94.542 L 403.636 46.468 L 416.622 46.468 L 395.122 107.184 L 379.556 107.184 L 358.056 46.468 Z  M 457.364 56.1 L 433.284 56.1 L 433.284 71.838 L 454.784 71.838 L 454.784 81.126 L 433.284 81.126 L 433.284 97.466 L 457.364 97.466 L 457.364 107.184 L 421.158 107.184 L 421.158 46.468 L 457.364 46.468 L 457.364 56.1 Z  M 515.736 46.468 L 515.736 107.184 L 503.61 107.184 L 476.434 65.904 L 476.434 107.184 L 464.308 107.184 L 464.308 46.468 L 476.434 46.468 L 503.61 88.092 L 503.61 46.468 L 515.736 46.468 Z  M 524.744 46.468 L 536.87 46.468 L 536.87 107.184 L 524.744 107.184 L 524.744 46.468 Z  M 590.942 107.184 L 577.526 107.184 L 563.336 83.534 L 558.004 83.534 L 558.004 107.184 L 545.878 107.184 L 545.878 46.468 L 569.012 46.468 L 569.012 46.468 Q 579.59 46.468 585.137 51.628 L 585.137 51.628 L 585.137 51.628 Q 590.684 56.788 590.684 65.216 L 590.684 65.216 L 590.684 65.216 Q 590.684 72.096 586.857 76.74 L 586.857 76.74 L 586.857 76.74 Q 583.03 81.384 575.806 82.932 L 575.806 82.932 L 590.942 107.184 Z  M 558.004 56.702 L 558.004 75.192 L 567.98 75.192 L 567.98 75.192 Q 578.386 75.192 578.386 65.99 L 578.386 65.99 L 578.386 65.99 Q 578.386 61.604 575.849 59.153 L 575.849 59.153 L 575.849 59.153 Q 573.312 56.702 567.98 56.702 L 567.98 56.702 L 558.004 56.702 Z  M 351.178 107.184 L 346.964 94.972 L 322.626 94.972 L 318.326 107.184 L 305.512 107.184 L 327.872 47.156 L 341.718 47.156 L 363.992 107.184 L 351.178 107.184 Z  M 325.808 85.77 L 343.696 85.77 L 334.752 60.142 L 325.808 85.77 Z  M 269.63 46.468 L 269.63 97.896 L 290.012 97.896 L 290.012 107.184 L 257.504 107.184 L 257.504 46.468 L 269.63 46.468 Z " fill="rgb(86,26,255)"/></g></g></svg>