<svg width="1024pt" height="224pt" style="isolation:isolate" version="1.1" viewBox="0 0 1024 224" xmlns="http://www.w3.org/2000/svg"><defs><clipPath id="_clipPath_wXj1MYv37ZemGH9HcQ12PKwogsg0kzrT"><rect width="1024" height="224"/></clipPath></defs><g clip-path="url(#_clipPath_wXj1MYv37ZemGH9HcQ12PKwogsg0kzrT)"><defs><linearGradient id="_lgradient_4" x1="-.23822" x2=".91002" y1=".49378" y2=".80247"><stop stop-color="#FF2F2F" offset=".0125"/><stop stop-color="#3C1E8C" offset=".80417"/></linearGradient></defs><path d="m6.151 0h1011.7c3.395 0 6.151 2.756 6.151 6.151v211.7c0 3.395-2.756 6.151-6.151 6.151h-1011.7c-3.395 0-6.151-2.756-6.151-6.151v-211.7c0-3.395 2.756-6.151 6.151-6.151z" fill="url(#_lgradient_4)"/><g opacity=".25" style="mix-blend-mode:overlay"><path d="m797 183.84c16.471-0.041 33.014-5.703 46.536-17.251 22.168-18.941 32.168-50.798 24.311-77.475l-0.138-0.505c-1.288-4.895-7.139-19.797-16.569-23.134-10.792-3.822-26.287-1.755-38.845 29.777-8.936 22.436-14.333 52.116-15.196 83.574-0.045 1.674-0.077 3.344-0.099 5.014m-0.47 84.257c-0.235 0.086-0.472 0.169-0.711 0.246-7.226 2.324-14.95-1.696-17.257-8.98-4.383-13.854-7.289-31.795-8.464-51.499-18.66-5.195-36.015-15.896-49.445-31.881-17.229-20.508-25.505-46.553-23.308-73.339 2.199-26.787 14.61-51.106 34.945-68.479 13.676-11.678 30.187-19.43 47.769-22.431 1.244-0.268 3.769-0.717 6.692-0.732 10.732-0.054 15.673 5.704 17.665 9.141 7.622 13.155-3.697 28.353-17.068 42.812-5.172 5.598-13.862 5.903-19.409 0.687-5.388-5.066-5.829-13.484-1.107-19.087-6.023 2.77-11.676 6.378-16.787 10.743-14.741 12.591-23.736 30.218-25.329 49.629-1.592 19.412 4.406 38.293 16.894 53.154 7.829 9.322 17.499 16.163 28.023 20.44 0-0.152 9e-3 -0.307 0.012-0.464 0.675-24.511 4.199-60.565 17.163-93.13 7.883-19.791 18.498-33.806 31.545-41.646 12.854-7.724 27.34-9.089 41.889-3.938 24.314 8.612 32.814 37.601 34.002 42.113 5.29 18.135 4.984 37.842-0.884 57.011-5.928 19.359-17.02 36.395-32.073 49.253-8.872 7.575-18.694 13.322-28.997 17.263-11.097 4.253-22.749 6.41-34.398 6.532 1.2 15.262 3.544 29.013 6.836 39.425 2.228 7.044-1.426 14.565-8.198 17.157" fill="#fff"/></g><rect x="269.75" y="184.17" width="482.31" height="10" fill="#e84535"/><g fill="#fff"><path d="m305.77 62.937-5.446-3.163q3.444-5.406 3.564-11.171v-6.767h9.209v6.206q0 3.604-2.002 7.808t-5.325 7.087z"/><path d="m410.36 112.82q10.824 0 17.958 5.576t9.43 15.17h-12.136q-1.886-4.674-5.863-7.38t-9.553-2.706q-4.592 0-8.282 2.296t-5.74 6.56-2.05 10.004q0 5.658 2.05 9.922t5.74 6.56 8.282 2.296q5.576 0 9.553-2.706t5.863-7.38h12.136q-2.296 9.594-9.43 15.17t-17.958 5.576q-8.282 0-14.637-3.731t-9.84-10.455-3.485-15.252q0-8.61 3.485-15.334t9.799-10.455 14.678-3.731zm61.222-0.246q8.118 0 14.719 3.772t10.414 10.537 3.813 15.293-3.813 15.334-10.414 10.578-14.719 3.772-14.719-3.772-10.414-10.578-3.813-15.334 3.813-15.293 10.414-10.537 14.719-3.772zm0 10.66q-5.084 0-8.938 2.296t-6.027 6.601-2.173 10.045 2.173 10.045 6.027 6.601 8.938 2.296 8.938-2.296 6.027-6.601 2.173-10.045-2.173-10.045-6.027-6.601-8.938-2.296zm84.1-9.184h13.94v57.236h-11.48v-39.934l-14.678 39.934h-10.004l-14.678-39.77v39.77h-11.562v-57.236h14.022l17.384 43.05 17.056-43.05zm70.898 0h13.94v57.236h-11.48v-39.934l-14.678 39.934h-10.004l-14.678-39.77v39.77h-11.562v-57.236h14.022l17.384 43.05 17.056-43.05zm22.108-0.656h11.48v33.948q0 6.806 2.993 10.209t8.651 3.403q5.576 0 8.569-3.403t2.993-10.209v-33.948h11.48v33.948q0 8.036-2.993 13.571t-8.282 8.241-12.013 2.706q-10.414 0-16.646-6.232t-6.232-18.286v-33.948zm103.37 0v57.892h-11.562l-25.912-39.36v39.36h-11.562v-57.892h11.562l25.912 39.688v-39.688h11.562zm-447.79 9.184h-22.96v15.006h20.5v8.856h-20.5v15.58h22.96v9.266h-34.522v-57.892h34.522v9.184zm55.564-9.184v57.892h-11.562l-25.912-39.36v39.36h-11.562v-57.892h11.562l25.912 39.688v-39.688h11.562zm5.138-71.176h12.382l15.498 45.838 15.58-45.838h12.382l-20.5 57.892h-14.842l-20.5-57.892zm94.596 9.184h-22.96v15.006h20.5v8.856h-20.5v15.58h22.96v9.266h-34.522v-57.892h34.522v9.184zm55.564-9.184v57.892h-11.562l-25.912-39.36v39.36h-11.562v-57.892h11.562l25.912 39.688v-39.688h11.562zm8.496 0h11.562v57.892h-11.562v-57.892zm63.026 57.892h-12.792l-13.53-22.55h-5.084v22.55h-11.562v-57.892h22.058q10.086 0 15.375 4.92t5.289 12.956q0 6.56-3.649 10.988t-10.537 5.904l14.432 23.124zm-31.406-48.134v17.63h9.512q9.922 0 9.922-8.774 0-4.182-2.419-6.519t-7.503-2.337h-9.512zm-196.46 48.134-4.018-11.644h-23.206l-4.1 11.644h-12.218l21.32-57.236h13.202l21.238 57.236h-12.218zm-24.19-20.418h17.056l-8.528-24.436-8.528 24.436zm-53.286-37.474v49.036h19.434v8.856h-30.996v-57.892h11.562z"/></g></g></svg>
